<svg xmlns="http://www.w3.org/2000/svg" viewBox="0 0 80 50"><switch><g><path d="M4 49.5C2.1 49.5.5 47.9.5 46V4C.5 2.1 2.1.5 4 .5h72c1.9 0 3.5 1.6 3.5 3.5v42c0 1.9-1.6 3.5-3.5 3.5H4z" fill="#fff"/><path d="M76 1c1.7 0 3 1.3 3 3v42c0 1.7-1.3 3-3 3H4c-1.7 0-3-1.3-3-3V4c0-1.7 1.3-3 3-3h72m0-1H4C1.8 0 0 1.8 0 4v42c0 2.2 1.8 4 4 4h72c2.2 0 4-1.8 4-4V4c0-2.2-1.8-4-4-4z" fill="#e6e6e6"/><path d="M29.237 35.922c-1.733 1.734-3.467 2.476-5.447 2.476-3.962 0-6.686-2.97-6.686-6.933 0-3.961 2.971-6.933 6.686-6.933 1.98 0 3.714.743 5.2 2.476l2.475-2.97c-1.98-2.477-4.704-3.715-7.675-3.715-3.22 0-5.943.99-7.924 2.971-2.228 1.981-3.466 4.952-3.466 8.419s1.238 6.19 3.466 8.419c1.981 1.98 4.952 2.97 7.924 2.97 3.218 0 5.695-1.237 7.675-3.713l-2.228-3.467zm5.2 6.438h4.457V20.57h-4.457v21.79zm21.79-4.952c-1.239.743-2.23.99-3.22.99-1.485 0-1.98-.742-1.98-2.476V24.285h4.456V20.57h-4.457v-6.933l-4.457 2.476v4.457h-3.714v4.209h3.714v12.38c0 3.467 1.981 5.695 4.953 5.695 1.98 0 3.218-.495 3.961-.99l.99-4.21-.247-.247zm3.713 4.952h4.457V20.57H59.94v21.79z" fill="#003b70"/><path d="M67.12 16.609c-4.209-5.695-10.894-9.162-17.827-9.162s-13.618 3.467-17.828 9.162v.248h5.2c3.467-3.715 8.171-5.448 12.876-5.448 4.704 0 9.161 1.981 12.875 5.448h5.2l-.495-.248z" fill-rule="evenodd" clip-rule="evenodd" fill="#d9261c"/></g></switch></svg>