<svg xmlns="http://www.w3.org/2000/svg" viewBox="0 0 80 50"><switch><g><path d="M4 49.5C2.1 49.5.5 47.9.5 46V4C.5 2.1 2.1.5 4 .5h72c1.9 0 3.5 1.6 3.5 3.5v42c0 1.9-1.6 3.5-3.5 3.5H4z" fill="#fff"/><path d="M76 1c1.7 0 3 1.3 3 3v42c0 1.7-1.3 3-3 3H4c-1.7 0-3-1.3-3-3V4c0-1.7 1.3-3 3-3h72m0-1H4C1.8 0 0 1.8 0 4v42c0 2.2 1.8 4 4 4h72c2.2 0 4-1.8 4-4V4c0-2.2-1.8-4-4-4z" fill="#e6e6e6"/><path d="M18.6 25.6c.2.1.5.2.8.3.5.3 1 .7 1.3 1.2.4.7.7 1.6.7 2.6 0 3.5-2.1 5.3-6.4 5.3H6.7c-.2 0-.3-.1-.3-.3V17.8c0-.2.1-.3.3-.3h8.7c1.5 0 2.8.4 3.7 1.3 1 .8 1.4 2 1.4 3.3 0 .8-.2 1.5-.5 2.1-.3.7-.8 1.1-1.4 1.4zm-3.7 6.9c1.2 0 2.2-.2 2.7-.6.6-.4.9-1.1.9-2.1s-.3-1.7-.9-2.1c-.6-.4-1.5-.6-2.7-.6H9.7c-.3 0-.4.1-.4.3v4.7c0 .2.1.3.4.3l5.2.1zM9.7 20c-.2 0-.3.1-.3.3v4c0 .2.1.3.3.3h5.1c1.9 0 2.9-.8 2.9-2.3s-1-2.3-2.9-2.3H9.7zm26.7 5.6c.2.1.4.2.7.3.6.3 1 .7 1.3 1.2.5.7.8 1.6.8 2.6 0 3.5-2.1 5.3-6.4 5.3h-8.2c-.2 0-.3-.1-.3-.3V17.8c0-.2.1-.3.3-.3h8.7c1.5 0 2.7.4 3.7 1.3 1 .8 1.5 2 1.5 3.3 0 .8-.2 1.5-.5 2.1-.6.7-1 1.1-1.6 1.4zm-9-5.6c-.2 0-.3.1-.3.3v4c0 .2.1.3.3.3h5.2c1.9 0 2.9-.8 2.9-2.3s-1-2.3-2.9-2.3h-5.2zm5.2 12.5c1.2 0 2.2-.2 2.7-.6.6-.4.9-1.1.9-2.1s-.3-1.7-.9-2.1c-.6-.4-1.5-.6-2.7-.6h-5.3c-.2 0-.3.1-.3.3v4.7c0 .2.1.3.3.3l5.3.1zm22.2-14.8c.1-.1.1-.2.2-.2h2.9c.1 0 .1 0 .2.1s.1.1 0 .2L49 34.9c-.1.1-.2.1-.3.1s-.2 0-.3-.1l-9.1-17.1c-.1-.1-.1-.1-.1-.2s.1-.1.3-.1h2.7c.1 0 .3.1.3.2l5.8 11c0 .1.1.1.2.1s.3 0 .3-.1l6-11zm3.3 14.6c-.1.1-.2.2-.3.2h-2.9c-.1 0-.1 0-.2-.1 0-.1-.1-.1-.1-.2l9.1-17.1c.2-.1.3-.1.5-.1.1 0 .3 0 .3.1l9.1 17.1c0 .1 0 .1-.1.2 0 .1-.1.1-.2.1h-2.9c-.1 0-.3-.1-.3-.2l-5.7-11c-.1-.1-.2-.2-.3-.2-.1 0-.3.1-.3.2l-5.7 11z" fill="#004580"/></g></switch></svg>