<svg xmlns="http://www.w3.org/2000/svg" viewBox="0 0 80 50"><switch><g><path d="M4 49.5C2.1 49.5.5 47.9.5 46V4C.5 2.1 2.1.5 4 .5h72c1.9 0 3.5 1.6 3.5 3.5v42c0 1.9-1.6 3.5-3.5 3.5H4z" fill="#fff"/><path d="M76 1c1.7 0 3 1.3 3 3v42c0 1.7-1.3 3-3 3H4c-1.7 0-3-1.3-3-3V4c0-1.7 1.3-3 3-3h72m0-1H4C1.8 0 0 1.8 0 4v42c0 2.2 1.8 4 4 4h72c2.2 0 4-1.8 4-4V4c0-2.2-1.8-4-4-4z" fill="#e6e6e6"/><path d="M35.9 24.5l5.2-14.1v14.1c.8 0 1.5.1 2.3.1 14.1 0 25.6-3.7 25.6-8.9 0-5.1-11.5-9.2-25.6-9.2-14.2 0-25.6 4.1-25.6 9.2-.1 4.1 7.6 7.7 18.1 8.8zm-.4 1.1c-13.6.2-24.5 4.2-24.5 9.2 0 4.1 7.6 7.7 18 8.8l6.5-18zm5.6 0v18.1c12-.8 21.2-4.2 21.2-8.8s-9.1-8.6-21.2-9.3z" fill="#e1251b"/></g></switch></svg>