<svg version="1.1" id="Layer_1" xmlns="http://www.w3.org/2000/svg" x="0" y="0" viewBox="0 0 80 50" xml:space="preserve"><style>.st2{fill:#e9382f}</style><switch><g><g id="Card-Backer"><path d="M4 49.5C2.1 49.5.5 47.9.5 46V4C.5 2.1 2.1.5 4 .5h72c1.9 0 3.5 1.6 3.5 3.5v42c0 1.9-1.6 3.5-3.5 3.5H4z" fill="#fff"/><path d="M76 1c1.7 0 3 1.3 3 3v42c0 1.7-1.3 3-3 3H4c-1.7 0-3-1.3-3-3V4c0-1.7 1.3-3 3-3h72m0-1H4C1.8 0 0 1.8 0 4v42c0 2.2 1.8 4 4 4h72c2.2 0 4-1.8 4-4V4c0-2.2-1.8-4-4-4z" fill="#e6e6e6"/></g><path class="st2" d="M10.1 25l15 14.9V10.1L10.1 25m15 14.9h29.8L40 25 25.1 39.9M40 25l14.9-14.9H25.1L40 25"/><path class="st2" d="M54.9 10.1v29.8l15-14.9-15-14.9"/></g></switch></svg>