<svg xmlns="http://www.w3.org/2000/svg" viewBox="0 0 80 50"><switch><g><path d="M4 49.5C2.1 49.5.5 47.9.5 46V4C.5 2.1 2.1.5 4 .5h72c1.9 0 3.5 1.6 3.5 3.5v42c0 1.9-1.6 3.5-3.5 3.5H4z" fill="#fff"/><path d="M76 1c1.7 0 3 1.3 3 3v42c0 1.7-1.3 3-3 3H4c-1.7 0-3-1.3-3-3V4c0-1.7 1.3-3 3-3h72m0-1H4C1.8 0 0 1.8 0 4v42c0 2.2 1.8 4 4 4h72c2.2 0 4-1.8 4-4V4c0-2.2-1.8-4-4-4z" fill="#e6e6e6"/><path d="M49.3 23.3c-.1-1.5-.5-2.9-1.2-4.2L41.3 7.5c-.5-.9-.9-1.8-1.1-2.8l-.2.5c-1.7 2.9-1.7 6.4 0 9.3l5.3 9.3c1.7 2.9 1.7 6.4 0 9.3l-.3.5c-.2-1-.5-1.9-1.1-2.8L39 22.3l-3-5.6c-.5-.9-.9-1.8-1.1-2.8l-.3.5c-1.6 2.9-1.7 6.4 0 9.2L40 33c1.7 2.9 1.7 6.4 0 9.3l-.3.5c-.2-1-.5-1.9-1.1-2.8L32 28.3c-.9-1.6-1.3-3.3-1.2-5-7.2 1.9-12.1 5.8-12.1 10.4 0 6.4 9.6 11.6 21.4 11.6s21.4-5.2 21.4-11.6c-.1-4.6-5.1-8.5-12.2-10.4" fill="#ec1c24"/></g></switch></svg>